<?xml version="1.0" encoding="UTF-8"?>
<!DOCTYPE svg PUBLIC "-//W3C//DTD SVG 1.1//EN" "http://www.w3.org/Graphics/SVG/1.1/DTD/svg11.dtd">
<!-- Creator: CorelDRAW 2019 (64 Bit) -->
<svg xmlns="http://www.w3.org/2000/svg" xml:space="preserve" width="102.439mm" height="114.725mm" version="1.1" style="shape-rendering:geometricPrecision; text-rendering:geometricPrecision; image-rendering:optimizeQuality; fill-rule:evenodd; clip-rule:evenodd"
viewBox="0 0 1524.17 1706.97"
 xmlns:xlink="http://www.w3.org/1999/xlink"
 xmlns:xodm="http://www.corel.com/coreldraw/odm/2003">
 <defs>
  <style type="text/css">
   <![CDATA[
    .fil1 {fill:#E6E7E8}
    .fil0 {fill:#A9ABAE}
    .fil2 {fill:black;fill-opacity:0.368627}
   ]]>
  </style>
 </defs>
 <g id="Camada_x0020_1">
  <metadata id="CorelCorpID_0Corel-Layer"/>
  <path class="fil0" d="M-0 221.92c0,-157.45 162.76,-56.48 358.89,-76.72 186.33,-19.23 315.34,-145.21 403.19,-145.21 87.85,0 216.87,125.98 403.19,145.21 196.13,20.24 358.89,-80.74 358.89,76.72 0,171.76 0,295.01 0,466.77 0,619.14 -532.5,1018.27 -762.08,1018.27 -229.58,0 -762.08,-399.13 -762.08,-1018.27 0,-171.76 0,-295.01 0,-466.77z"/>
  <path class="fil1" d="M1360.67 233.29c9.49,-1.23 20.57,-2.67 29.92,-3.71 1.84,-0.33 3.74,-0.5 5.68,-0.5 17.66,0 31.98,14.23 31.98,31.78l0 427.84c0,125.03 -24.35,246.23 -69.56,359.52 -46.3,116.01 -114.4,223.36 -200.55,317.69 -33.44,36.61 -70.5,72.08 -110.32,104.65 -37.15,30.39 -76.66,58.09 -117.8,81.66 -23.48,13.45 -57.59,30.86 -91.45,43.11 -26.52,9.6 -53.4,16.29 -76.48,16.29 -23.08,0 -49.96,-6.68 -76.48,-16.29 -33.86,-12.26 -67.96,-29.66 -91.45,-43.11 -41.13,-23.56 -80.64,-51.27 -117.8,-81.66 -39.82,-32.57 -76.88,-68.04 -110.32,-104.65 -86.16,-94.33 -154.26,-201.68 -200.55,-317.69 -45.21,-113.29 -69.56,-234.49 -69.56,-359.52l0 -427.84 0.07 0c0,-1.11 0.06,-2.23 0.18,-3.35 1.86,-17.42 17.58,-30.03 35.1,-28.18 9.79,1.05 21.94,2.63 32.22,3.96 4.41,0.57 8.25,1.07 15.12,1.85 32.82,3.71 64.79,6.64 95.97,7.76 31.17,1.12 62.42,0.52 94.27,-2.77 46.27,-4.77 89.9,-14.99 132.31,-29.18 42.81,-14.33 84.66,-32.83 126.87,-53.97 6.73,-3.37 13.94,-7.21 22.42,-11.72 31.77,-16.91 78.63,-41.85 103.2,-48.2 5.08,-1.39 10.57,-1.54 16.05,-0.21 24.34,6 71.89,31.31 104.01,48.41 8.48,4.52 15.7,8.36 22.42,11.72 42.21,21.14 84.06,39.64 126.87,53.97 42.41,14.19 86.04,24.41 132.31,29.18 31.85,3.29 63.1,3.89 94.27,2.77 31.17,-1.12 63.15,-4.05 95.97,-7.76 6.87,-0.78 10.71,-1.28 15.12,-1.85z"/>
  <path class="fil2" d="M762.08 1611.62c23.08,0 49.96,-6.68 76.48,-16.29 33.86,-12.26 67.96,-29.66 91.45,-43.11 41.13,-23.56 80.64,-51.27 117.8,-81.66 39.82,-32.57 76.88,-68.04 110.32,-104.65 86.16,-94.33 154.26,-201.68 200.55,-317.69 45.21,-113.29 69.56,-234.49 69.56,-359.52l0 -427.84 -0.07 0c0,-1.11 -0.06,-2.23 -0.18,-3.35 -1.86,-17.42 -17.58,-30.03 -35.1,-28.18 -9.79,1.05 -21.94,2.63 -32.22,3.96 -4.41,0.57 -8.25,1.07 -15.12,1.85 -32.82,3.71 -64.79,6.64 -95.97,7.76 -31.17,1.12 -62.42,0.52 -94.27,-2.77 -46.27,-4.77 -89.9,-14.99 -132.31,-29.18 -42.81,-14.33 -84.66,-32.83 -126.87,-53.97 -6.73,-3.37 -13.94,-7.21 -22.42,-11.72 -31.77,-16.91 -78.63,-41.85 -103.2,-48.2 -2.71,-0.74 -5.54,-1.13 -8.43,-1.13l0 1515.7z"/>
 </g>
</svg>
