<?xml version="1.0" encoding="UTF-8"?>
<!DOCTYPE svg PUBLIC "-//W3C//DTD SVG 1.1//EN" "http://www.w3.org/Graphics/SVG/1.1/DTD/svg11.dtd">
<!-- Creator: CorelDRAW 2019 (64 Bit) -->
<svg xmlns="http://www.w3.org/2000/svg" xml:space="preserve" width="60.3279mm" height="47.8398mm" version="1.1" style="shape-rendering:geometricPrecision; text-rendering:geometricPrecision; image-rendering:optimizeQuality; fill-rule:evenodd; clip-rule:evenodd"
viewBox="0 0 265.99 210.93"
 xmlns:xlink="http://www.w3.org/1999/xlink"
 xmlns:xodm="http://www.corel.com/coreldraw/odm/2003">
 <defs>
  <style type="text/css">
   <![CDATA[
    .fil0 {fill:#FEFEFE}
   ]]>
  </style>
 </defs>
 <g id="Camada_x0020_1">
  <metadata id="CorelCorpID_0Corel-Layer"/>
  <path class="fil0" d="M130.3 173.19l-45.59 -45.59 159.15 0c12.17,0 22.12,-9.95 22.12,-22.12l0 -0c0,-12.17 -9.96,-22.12 -22.12,-22.12l-159.18 0 45.62 -45.62c8.6,-8.6 8.6,-22.68 0,-31.29l-0 -0c-8.6,-8.6 -22.68,-8.6 -31.29,0l-67.72 67.72 -31.29 31.29 31.29 31.29 67.72 67.72c8.6,8.6 22.68,8.6 31.29,0l0 -0c8.6,-8.6 8.6,-22.68 0,-31.29z"/>
 </g>
</svg>
