<?xml version="1.0" encoding="UTF-8"?>
<!DOCTYPE svg PUBLIC "-//W3C//DTD SVG 1.1//EN" "http://www.w3.org/Graphics/SVG/1.1/DTD/svg11.dtd">
<!-- Creator: CorelDRAW 2019 (64 Bit) -->
<svg xmlns="http://www.w3.org/2000/svg" xml:space="preserve" width="129.592mm" height="114.726mm" version="1.1" style="shape-rendering:geometricPrecision; text-rendering:geometricPrecision; image-rendering:optimizeQuality; fill-rule:evenodd; clip-rule:evenodd"
viewBox="0 0 1747.49 1547.02"
 xmlns:xlink="http://www.w3.org/1999/xlink"
 xmlns:xodm="http://www.corel.com/coreldraw/odm/2003">
 <defs>
  <style type="text/css">
   <![CDATA[
    .fil1 {fill:#BDBFC1}
    .fil0 {fill:#606062}
   ]]>
  </style>
 </defs>
 <g id="Camada_x0020_1">
  <metadata id="CorelCorpID_0Corel-Layer"/>
  <path class="fil0" d="M57.89 430.06c2.43,108.03 11.93,521.25 -0.76,618.75 -7.09,54.49 -33.41,105.99 -43.22,166.7 -7.42,45.91 -19.35,157.22 -11.12,200.91 10.59,56.16 62.9,82.84 114.26,95.79 196.59,49.59 1636.88,101.88 1630.43,-268.75 -2.37,-80.43 -17.99,-147.81 -47.91,-191.16 -67.94,-98.42 -218.51,-54.91 -318.24,-70.96 -117.59,-18.93 -210.54,-33.01 -305.33,-94.7 -192.72,-125.4 -214.43,-195.95 -230.25,-423.36 -9.11,-130.9 -22.85,-261.65 -31.1,-392.73 -2.32,-36.83 -9.33,-58.4 -38.35,-68.51 -21.23,-7.39 -60.65,7.24 -84.72,12.43 -222.2,47.95 -402.08,-6.15 -537.56,92.26 -99.11,72 -98.71,207.67 -96.11,323.31z"/>
  <path class="fil1" d="M1666.61 1186.52c-9.85,-118.23 -56.82,-121.6 -125.32,-122.35 -342.14,-3.76 -667.4,-76.64 -784.44,-436.24 -20.9,-64.22 -42.22,-446.7 -49.16,-542.87 -48.43,6.9 -92.83,18.12 -144.58,23.42 -150.05,15.38 -357.64,-16.88 -397.54,103.61 -42.53,128.44 4.97,607.15 -10.81,803.42 -10.13,126.08 -55.96,193.24 -59.78,336.62 -0.68,25.53 -8.68,69.24 16.74,74.68 308.05,66.03 1577.88,106.9 1554.9,-240.28z"/>
  <path class="fil0" d="M752.01 544.37c-2.13,-17.92 -4.23,-37.74 -6.28,-58.84l-221.7 12.6c-36.52,2.03 -62.39,16.72 -57.77,32.81 4.62,16.08 37.98,27.47 74.5,25.44l211.25 -12zm-11.64 -117.71c-1.65,-19.23 -3.25,-38.96 -4.8,-58.8l-247.09 10.42c-36.67,1.53 -63.59,15.85 -60.12,32 3.46,16.15 36,28 72.67,26.47l239.35 -10.09zm-9.26 -117.95c-1.46,-20.03 -2.86,-39.79 -4.18,-58.87l-254.84 11.35c-36.67,1.59 -63.47,15.97 -59.86,32.11 3.61,16.15 36.26,27.95 72.93,26.36l245.95 -10.95z"/>
 </g>
</svg>
