<?xml version="1.0" encoding="UTF-8"?>
<!DOCTYPE svg PUBLIC "-//W3C//DTD SVG 1.1//EN" "http://www.w3.org/Graphics/SVG/1.1/DTD/svg11.dtd">
<!-- Creator: CorelDRAW 2019 (64 Bit) -->
<svg xmlns="http://www.w3.org/2000/svg" xml:space="preserve" width="53.3576mm" height="54.7522mm" version="1.1" style="shape-rendering:geometricPrecision; text-rendering:geometricPrecision; image-rendering:optimizeQuality; fill-rule:evenodd; clip-rule:evenodd"
viewBox="0 0 1428.23 1465.56"
 xmlns:xlink="http://www.w3.org/1999/xlink"
 xmlns:xodm="http://www.corel.com/coreldraw/odm/2003">
 <defs>
  <style type="text/css">
   <![CDATA[
    .fil0 {fill:#D2D3D5}
    .fil1 {fill:#78462C}
    .fil2 {fill:#373435;fill-opacity:0.368627}
   ]]>
  </style>
 </defs>
 <g id="Camada_x0020_1">
  <metadata id="CorelCorpID_0Corel-Layer"/>
  <g id="_2289539663008">
   <path class="fil0" d="M1428.23 190.54c0,-135.18 -152.52,-48.49 -336.3,-65.87 -174.6,-16.51 -295.49,-124.67 -377.81,-124.67 -82.32,0 -203.22,108.16 -377.81,124.67 -183.79,17.38 -336.3,-69.32 -336.3,65.87 0,147.47 0,253.29 0,400.76 0,531.58 498.98,874.26 714.11,874.26 215.13,0 714.11,-342.68 714.11,-874.26 0,-147.47 0,-253.29 0,-400.76z"/>
   <path class="fil1" d="M153.21 200.29c-8.89,-1.06 -19.27,-2.3 -28.04,-3.19 -1.72,-0.28 -3.5,-0.43 -5.32,-0.43 -16.55,0 -29.96,12.22 -29.96,27.29l0 367.33c0,107.34 22.81,211.4 65.18,308.68 43.38,99.6 107.19,191.77 187.93,272.76 31.34,31.44 66.06,61.89 103.37,89.85 34.82,26.09 71.84,49.88 110.38,70.11 22.01,11.55 53.97,26.49 85.69,37.02 24.86,8.24 50.04,13.98 71.67,13.98 21.63,0 46.81,-5.74 71.67,-13.98 31.72,-10.52 63.68,-25.47 85.69,-37.02 38.54,-20.23 75.57,-44.02 110.38,-70.11 37.31,-27.96 72.04,-58.41 103.37,-89.85 80.73,-80.99 144.55,-173.16 187.93,-272.76 42.37,-97.27 65.18,-201.33 65.18,-308.68l0 -367.33 -0.07 0c0,-0.95 -0.06,-1.91 -0.17,-2.88 -1.74,-14.95 -16.47,-25.79 -32.89,-24.2 -9.18,0.9 -20.56,2.26 -30.19,3.4 -4.13,0.49 -7.73,0.92 -14.17,1.59 -30.75,3.19 -60.72,5.7 -89.92,6.66 -29.21,0.96 -58.49,0.44 -88.34,-2.38 -43.35,-4.1 -84.24,-12.87 -123.98,-25.06 -40.12,-12.3 -79.33,-28.19 -118.88,-46.33 -6.31,-2.89 -13.06,-6.19 -21.01,-10.07 -29.77,-14.52 -73.68,-35.93 -96.7,-41.38 -4.76,-1.19 -9.91,-1.33 -15.04,-0.18 -22.81,5.15 -67.36,26.88 -97.46,41.56 -7.95,3.88 -14.71,7.18 -21.01,10.07 -39.55,18.15 -78.77,34.03 -118.89,46.33 -39.74,12.18 -80.62,20.96 -123.98,25.06 -29.85,2.82 -59.13,3.34 -88.34,2.38 -29.21,-0.96 -59.17,-3.47 -89.92,-6.66 -6.44,-0.66 -10.04,-1.09 -14.17,-1.59z"/>
   <path class="fil2" d="M714.11 1383.69c21.63,0 46.81,-5.74 71.67,-13.98 31.72,-10.52 63.68,-25.47 85.69,-37.02 38.54,-20.23 75.57,-44.02 110.38,-70.11 37.31,-27.96 72.04,-58.41 103.37,-89.85 80.73,-80.99 144.55,-173.16 187.93,-272.76 42.37,-97.27 65.18,-201.33 65.18,-308.68l0 -367.33 -0.07 0c0,-0.95 -0.06,-1.91 -0.17,-2.88 -1.75,-14.95 -16.47,-25.79 -32.89,-24.2 -9.18,0.9 -20.56,2.26 -30.19,3.4 -4.13,0.49 -7.73,0.92 -14.17,1.59 -30.75,3.19 -60.72,5.7 -89.92,6.66 -29.21,0.96 -58.49,0.44 -88.34,-2.38 -43.35,-4.1 -84.24,-12.87 -123.98,-25.06 -40.12,-12.3 -79.33,-28.19 -118.88,-46.33 -6.31,-2.89 -13.06,-6.19 -21.01,-10.07 -29.77,-14.52 -73.68,-35.93 -96.7,-41.38 -2.54,-0.63 -5.2,-0.97 -7.9,-0.97l0 1301.34z"/>
  </g>
 </g>
</svg>
