<?xml version="1.0" encoding="UTF-8"?>
<!DOCTYPE svg PUBLIC "-//W3C//DTD SVG 1.1//EN" "http://www.w3.org/Graphics/SVG/1.1/DTD/svg11.dtd">
<!-- Creator: CorelDRAW 2019 (64 Bit) -->
<svg xmlns="http://www.w3.org/2000/svg" xml:space="preserve" width="40.5532mm" height="110.066mm" version="1.1" style="shape-rendering:geometricPrecision; text-rendering:geometricPrecision; image-rendering:optimizeQuality; fill-rule:evenodd; clip-rule:evenodd"
viewBox="0 0 139.5 378.62"
 xmlns:xlink="http://www.w3.org/1999/xlink"
 xmlns:xodm="http://www.corel.com/coreldraw/odm/2003">
 <defs>
  <style type="text/css">
   <![CDATA[
    .fil0 {fill:#D2D3D5}
    .fil3 {fill:#727376}
    .fil4 {fill:#606062}
    .fil2 {fill:#4B4B4D}
    .fil1 {fill:#D2D3D5;fill-rule:nonzero}
   ]]>
  </style>
 </defs>
 <g id="Camada_x0020_1">
  <metadata id="CorelCorpID_0Corel-Layer"/>
  <rect class="fil0" x="0" width="70.04" height="378.62"/>
  <g id="_2289474266976">
   <path class="fil1" d="M29.95 63.01l27.36 -55.28c3.39,-6.87 11.71,-9.69 18.58,-6.3 2.85,1.41 5,3.66 6.3,6.3l27.36 55.28c1.15,2.33 1.58,4.82 1.39,7.23l-7.82 174.44 24.76 4.16c6.79,1.13 11.61,7.02 11.6,13.69l0.03 0 0 18.35c0,7.68 -6.23,13.91 -13.91,13.91l-26.73 0 -3.43 31.34c1.3,1.67 2.43,3.47 3.39,5.39 2.19,4.38 3.43,9.32 3.43,14.53l0.05 0c0,8.99 -3.64,17.13 -9.54,23.02 -5.86,5.86 -14,9.48 -23.02,9.48l0 0.05c-8.99,0 -17.13,-3.64 -23.02,-9.54 -5.89,-5.89 -9.54,-14.03 -9.54,-23.02 0,-5.13 1.25,-10.07 3.48,-14.53 0.96,-1.91 2.09,-3.71 3.39,-5.39l-3.43 -31.35 -26.73 0c-7.68,0 -13.91,-6.23 -13.91,-13.91l0 -18.35c0,-7.21 5.48,-13.13 12.5,-13.84l23.88 -4.02 -7.85 -174.94c-0.1,-2.41 0.42,-4.71 1.42,-6.73l-0 -0zm39.8 -17.86l-13.34 26.96 7.05 157.28 3.01 -0.68c2.01,-0.49 4.17,-0.54 6.32,-0.05l3.25 0.73 7.05 -157.28 -13.34 -26.96zm4.3 298.77c-0.27,-0.54 -0.64,-1.02 -1.1,-1.43 -1.24,-0.87 -2.32,-1.94 -3.21,-3.15 -0.79,1.07 -1.74,2.04 -2.85,2.87 -0.61,0.46 -1.1,1.04 -1.43,1.7 -0.28,0.56 -0.44,1.28 -0.44,2.14 0,1.31 0.53,2.5 1.39,3.35 0.86,0.86 2.04,1.39 3.35,1.39l0 0.05c1.27,0 2.46,-0.55 3.35,-1.44 0.86,-0.86 1.39,-2.04 1.39,-3.35l0.05 -0c0,-0.78 -0.18,-1.51 -0.49,-2.14zm-7.18 -64.5l2.88 26.28 2.78 -25.41c0.21,-4.89 2.94,-9.13 6.92,-11.44l-9.71 -1.63 -9.76 1.64c3.72,2.14 6.39,5.97 6.88,10.56z"/>
   <path class="fil2" d="M80.93 331.14c4.54,3.4 7.47,8.82 7.47,14.93 0,10.3 -8.35,18.65 -18.65,18.65 -10.3,0 -18.65,-8.35 -18.65,-18.65 0,-6.11 2.93,-11.53 7.47,-14.93l-5.5 -50.24 -39.16 0 0 -18.35 55.84 -9.39 55.84 9.39 0 18.35 -39.16 0 -5.5 50.24z"/>
   <polygon class="fil3" points="42.39,69.15 69.75,13.88 97.11,69.15 89.15,246.57 69.75,242.19 50.35,246.57 "/>
   <polygon class="fil4" points="69.75,13.88 97.11,69.15 89.15,246.57 69.75,242.19 "/>
  </g>
 </g>
</svg>
