<?xml version="1.0" encoding="UTF-8"?>
<!DOCTYPE svg PUBLIC "-//W3C//DTD SVG 1.1//EN" "http://www.w3.org/Graphics/SVG/1.1/DTD/svg11.dtd">
<!-- Creator: CorelDRAW 2019 (64 Bit) -->
<svg xmlns="http://www.w3.org/2000/svg" xml:space="preserve" width="31.8784mm" height="30.42mm" version="1.1" style="shape-rendering:geometricPrecision; text-rendering:geometricPrecision; image-rendering:optimizeQuality; fill-rule:evenodd; clip-rule:evenodd"
viewBox="0 0 93.06 88.81"
 xmlns:xlink="http://www.w3.org/1999/xlink"
 xmlns:xodm="http://www.corel.com/coreldraw/odm/2003">
 <defs>
  <style type="text/css">
   <![CDATA[
    .fil0 {fill:#222F3E}
   ]]>
  </style>
 </defs>
 <g id="Camada_x0020_1">
  <metadata id="CorelCorpID_0Corel-Layer"/>
  <path class="fil0" d="M49.41 2.11l9.55 29.57 31.1 -0.06c1.66,0 3.01,1.35 3.01,3.01 0,1 -0.49,1.89 -1.24,2.43l0 0.01 -25.2 18.23 9.67 29.56c0.51,1.58 -0.35,3.28 -1.93,3.8 -1.03,0.34 -2.11,0.08 -2.88,-0.57l-24.95 -18.2 -25.13 18.33c-1.34,0.98 -3.22,0.68 -4.2,-0.66 -0.59,-0.81 -0.71,-1.81 -0.43,-2.7l-0.01 -0 9.67 -29.56 -25.2 -18.23c-1.35,-0.98 -1.65,-2.86 -0.67,-4.21 0.63,-0.88 1.65,-1.31 2.66,-1.24l30.89 0.06 9.55 -29.59c0.51,-1.58 2.2,-2.45 3.78,-1.94 0.97,0.31 1.67,1.06 1.95,1.96z"/>
 </g>
</svg>
