<?xml version="1.0" encoding="UTF-8"?>
<!DOCTYPE svg PUBLIC "-//W3C//DTD SVG 1.1//EN" "http://www.w3.org/Graphics/SVG/1.1/DTD/svg11.dtd">
<!-- Creator: CorelDRAW 2019 (64 Bit) -->
<svg xmlns="http://www.w3.org/2000/svg" xml:space="preserve" width="74.0368mm" height="97.07mm" version="1.1" style="shape-rendering:geometricPrecision; text-rendering:geometricPrecision; image-rendering:optimizeQuality; fill-rule:evenodd; clip-rule:evenodd"
viewBox="0 0 466.78 612"
 xmlns:xlink="http://www.w3.org/1999/xlink"
 xmlns:xodm="http://www.corel.com/coreldraw/odm/2003">
 <defs>
  <style type="text/css">
   <![CDATA[
    .str0 {stroke:#373435;stroke-width:1.26;stroke-miterlimit:22.9256}
    .fil3 {fill:#FEFEFE}
    .fil4 {fill:#96989A}
    .fil0 {fill:#373435}
    .fil1 {fill:#78462C}
    .fil2 {fill:#C8D6E5}
    .fil5 {fill:#F368E0}
    .fil6 {fill:#FECA57}
   ]]>
  </style>
 </defs>
 <g id="Camada_x0020_1">
  <metadata id="CorelCorpID_0Corel-Layer"/>
  <g id="_2289540581408">
   <path class="fil0" d="M331.93 10.37c-63.1,0 -126.2,0 -189.3,0 -31.28,0 -63.56,-0.8 -94.71,-0.05 -24.02,0.57 -47.92,23.72 -47.92,48.03l0 496.6c0,27.77 29.28,57.05 57.05,57.05l388.99 0c14.34,0 10.37,-19.99 10.37,-41.49 0,-17.29 0,-34.57 0,-51.86 6.38,-0.53 10.37,-3.59 10.37,-10.37l0 -114.1c0,-6.79 -3.99,-9.84 -10.37,-10.37l0 -248.95c6.38,-0.53 10.37,-3.59 10.37,-10.37l0 -114.1c0,-6.27 -4.1,-10.37 -10.37,-10.37l-114.11 0c-6.79,0 -9.84,3.99 -10.37,10.37z"/>
   <path class="fil1" d="M52.28 407.14c-1.82,-7.42 -0.57,-250.37 -0.44,-280.07 0.03,-6.98 -1.19,-15.73 3.23,-20.12 6.46,-6.41 33.61,0.86 38.05,-31.84 2.39,-17.62 16.48,-12.92 33.95,-12.93 30.13,-0 225.55,-2.07 231.44,2 7.26,5.01 2.43,21.41 14.83,31.85 11.12,9.37 28.05,4.8 30.76,15.87 1.99,8.12 0.36,248.62 0.44,279.69 0.07,29.61 -4.86,19.18 -21.3,25.32 -11.47,4.28 -18.03,12.4 -19.96,26.64 -2.4,17.75 -16.52,12.77 -33.93,12.89 -30.22,0.22 -225.07,2.24 -231.41,-2 -7.93,-5.31 -1.5,-34.74 -30.93,-39.07 -7.36,-1.08 -13.09,-1.53 -14.73,-8.22zm-31.3 95.78c12.42,-7.22 17.86,-14.46 38.65,-15.34 17.95,-0.76 37.63,-0.02 55.78,-0.02l221.74 0.02c16.4,0.16 12.95,-1.4 33.66,-22.11l55.11 -55.11c13.38,-13.37 9.77,-9.57 9.78,-46l0 -221.72c0,-29.23 4.54,-19.72 -15.62,-40.15l-68.63 -68.8c-5.01,-4.37 -14.57,-2.58 -25.99,-2.58l-221.72 0c-35.27,0 -79.3,-8.42 -82.75,28.55 -1.3,13.87 -0.2,202.58 -0.17,221.71 0.04,36.73 -0.27,73.49 -0.03,110.21 0.24,35.41 -2.2,76.77 0.19,111.34z"/>
   <path class="fil2 str0" d="M83.73 273.59c-8.27,-85.05 55.4,-151.4 130.54,-158.78 84.54,-8.29 151.44,55.61 158.41,130.87 7.79,84.14 -55.42,151.49 -131.05,158.25 -83.91,7.5 -150.64,-55.56 -157.91,-130.34zm-11.07 -147.81l-0.05 269.61c11.6,2.32 20.14,7.95 26.23,14.05 12.45,12.48 11.11,20.45 15.26,26.13l226.91 0.1c6.3,-1.33 2.4,-20.87 28.26,-35.26 8.08,-4.49 13.62,-3.38 14.47,-7.53l0.05 -269.61c-19.11,-3.88 -32.7,-16.87 -38.66,-34.09 -2,-5.79 -0.18,-4.45 -4.13,-6.14l-225.62 -0.06c-6.21,1.32 -2.74,20.91 -28.3,35.21 -9.04,5.06 -12.38,2.79 -14.44,7.59z"/>
   <path class="fil3" d="M224.72 167.11c10.9,-5.3 17.92,13.98 22.21,21.61 5.71,10.16 10.47,20.28 16.41,30.25 6.12,10.28 52.82,26.5 57.15,36.33 5.17,11.72 -13.85,18.25 -21.69,22.72 -27.75,15.78 -29.72,11.14 -40.1,29.92 -5.27,9.54 -20.41,40.96 -26.47,43.66 -11.62,5.18 -18.52,-14.05 -22.75,-21.68 -5.56,-10.02 -10.52,-20.35 -16.39,-30.25 -6.24,-10.52 -52.85,-25.94 -57.17,-36.31 -5.1,-12.26 13.79,-18.02 21.76,-22.68 38.26,-22.33 28.22,-7.85 48.3,-45.04 4.41,-8.15 11.17,-24.86 18.74,-28.53zm-10.4 -31.35c-63.47,7.62 -118.75,64.6 -109.7,138.02 7.82,63.51 64.36,118.09 138.44,109.07 63.05,-7.68 117.37,-64.89 108.71,-138.15 -7.43,-62.92 -65.1,-117.63 -137.46,-108.93z"/>
   <path class="fil4" d="M83 508.26c-27.5,0 -39.22,-0.74 -53.69,16.36 -11.53,13.62 -10.99,38.66 1.24,51.66 16.21,17.23 26.18,14.94 55.03,15l350.05 0 0.05 -72.65 -86.94 0.04c-8.78,0.03 -11.56,0.3 -15.64,-6.34l-2.47 -4.05 -164.69 -0.02c0,10.75 2.41,52.27 -2.62,58.32 -9.61,11.59 -23.36,-7.47 -38.86,-14.31 -6.03,2.85 -13.09,8.21 -18.99,12.22 -30.27,20.59 -22.48,-20.14 -22.48,-56.24z"/>
   <path class="fil0" d="M214.31 135.75c72.36,-8.7 130.02,46.01 137.46,108.93 8.66,73.27 -45.67,130.47 -108.71,138.15 -74.08,9.03 -130.62,-45.56 -138.44,-109.07 -9.05,-73.41 46.23,-130.39 109.7,-138.02zm-130.58 137.83c7.27,74.78 74,137.84 157.91,130.34 75.62,-6.76 138.84,-74.11 131.05,-158.25 -6.97,-75.26 -73.87,-139.16 -158.41,-130.87 -75.14,7.37 -138.81,73.73 -130.54,158.78z"/>
   <path class="fil5" d="M168.22 259.32c7.05,5.71 34.69,18.52 38.07,21.91 3.09,3.1 16.23,30.94 21.91,38.16l6.1 -9.85c2.07,-3.67 3.01,-5.81 4.96,-9.34 2.73,-4.92 7.71,-15.32 11.11,-18.71 5.56,-5.53 30.62,-16.15 37.91,-22.17 -1.98,-1.63 -2.17,-1.7 -4.94,-3.32l-33.23 -18.6c-3.31,-3.28 -15.68,-30.35 -21.91,-38.16 -4,5.06 -7.57,12.94 -11.08,19.19 -13.71,24.33 -5.54,16.14 -29.77,29.83 -6.21,3.51 -14.11,6.99 -19.13,11.06z"/>
   <polygon class="fil6" points="445.52,99.11 446.05,77.8 446.06,20.73 418.89,20.73 411.03,20.8 392.8,20.79 385.1,20.72 373.43,20.73 368,20.78 "/>
   <polygon class="fil6" points="367.54,497.43 446.04,497.93 446.01,419.84 "/>
   <path class="fil6" d="M103.7 535.5l0.29 4.84c4.81,-2.54 14.79,-11.18 20.48,-11.18 5.58,0 15.78,8.63 20.37,11.16l0.33 -32 -41.29 -0.07 -0.19 27.25z"/>
  </g>
 </g>
</svg>
