<?xml version="1.0" encoding="UTF-8"?>
<!DOCTYPE svg PUBLIC "-//W3C//DTD SVG 1.1//EN" "http://www.w3.org/Graphics/SVG/1.1/DTD/svg11.dtd">
<!-- Creator: CorelDRAW 2019 (64 Bit) -->
<svg xmlns="http://www.w3.org/2000/svg" xml:space="preserve" width="69.136mm" height="65.573mm" version="1.1" style="shape-rendering:geometricPrecision; text-rendering:geometricPrecision; image-rendering:optimizeQuality; fill-rule:evenodd; clip-rule:evenodd"
viewBox="0 0 1718.19 1629.64"
 xmlns:xlink="http://www.w3.org/1999/xlink"
 xmlns:xodm="http://www.corel.com/coreldraw/odm/2003">
 <defs>
  <style type="text/css">
   <![CDATA[
    .fil3 {fill:#098062}
    .fil1 {fill:#10AC84}
    .fil0 {fill:#2F2F30}
    .fil9 {fill:#946D35}
    .fil4 {fill:#B36C29}
    .fil5 {fill:#B3814A}
    .fil6 {fill:#C4B69C}
    .fil7 {fill:#F8E6C4}
    .fil8 {fill:#FAAE3A}
    .fil2 {fill:#FF9F43}
   ]]>
  </style>
 </defs>
 <g id="Camada_x0020_1">
  <metadata id="CorelCorpID_0Corel-Layer"/>
  <g id="_2289600229152">
   <path class="fil0" d="M1438.08 509.92c27.99,-2.54 42.75,-3.05 67.68,-11.71 54.45,-18.32 98.22,-59.03 122.64,-114.5 20.36,-45.29 16.8,-88.04 16.8,-140.96 0,-55.47 -0.51,-89.57 -24.94,-133.33 -19.34,-35.11 -43.76,-60.56 -77.35,-80.91 -41.22,-24.94 -74.3,-28.5 -129.77,-28.5 -334.41,0 -597.21,0 -871.74,0l-237.15 0c-26.97,0 -47.84,-0.51 -73.28,6.11 -20.36,4.58 -40.71,13.23 -55.98,22.9 -9.16,5.09 -15.78,10.18 -23.41,16.28 -20.35,15.27 -41.73,40.71 -53.94,64.12 -23.92,47.84 -24.94,73.79 -24.94,133.33 0,53.94 -3.56,94.65 17.3,141.47 32.57,74.81 105.34,125.19 189.31,125.7 2.04,4.58 1.53,179.13 0.51,195.93 -7.13,-2.04 -13.74,-5.6 -22.9,-8.14 -8.14,-2.04 -17.3,-3.05 -26.46,-3.56 -19.85,-0.51 -40.71,0 -60.56,0 -44.78,0 -66.16,4.58 -94.65,26.46 -19.34,14.76 -39.69,40.71 -45.8,75.83 -4.58,24.43 -1.02,88.55 -2.04,119.08 -33.08,10.18 -26.97,38.17 -26.97,74.3l0 400.5c0,33.08 -1.02,60.56 8.65,91.6 8.14,24.93 20.36,49.36 34.1,66.15 6.11,7.63 16.28,19.34 23.92,26.46l27.99 21.38c58.02,36.13 90.58,33.59 167.43,33.59l1202.02 0c33.08,0 62.59,1.53 94.15,-5.6 70.23,-15.78 130.79,-72.26 152.16,-148.09 8.14,-31.04 7.12,-60.56 7.12,-93.13l0 -400.5c0,-13.74 1.53,-36.13 -3.56,-47.33 -6.11,-12.21 -13.23,-16.28 -29.01,-20.36 -1.02,-18.32 0,-40.71 0,-59.54l0 -118.57c0,-49.87 -39.69,-42.24 -76.84,-42.24 -19.85,0 -39.18,0 -59.03,0 -22.39,0 -34.1,1.02 -44.27,15.27 -10.18,14.25 -5.6,34.1 -6.62,52.93l-60.56 0 0 -252.41z"/>
   <path class="fil1" d="M1198.39 1003.55c10.18,-5.6 24.93,-23.92 32.57,-36.13 23.92,-36.13 28.5,-67.17 28.5,-109.92l0 -346.56 -907.87 0c-1.02,9.67 0,334.85 0,344.01 0,48.85 -3.05,82.95 27.48,123.15 21.88,29.52 57,50.89 96.69,54.45 10.18,1.02 34.6,1.53 43.76,0 0,-51.4 0,-103.31 0,-154.71 0,-11.71 -1.53,-25.45 3.56,-35.62 3.56,-8.14 10.69,-15.27 19.85,-18.83 11.2,-4.07 60.56,-2.04 76.34,-2.04 15.27,0 63.61,-2.04 75.32,2.04 26.46,9.16 23.41,35.11 23.41,54.45 0,9.67 -1.02,149.62 0.51,155.21l281.42 0c2.04,-11.2 -2.04,-170.99 1.02,-183.71 2.54,-10.18 8.65,-17.81 15.27,-21.88 10.18,-6.62 17.3,-6.11 31.04,-6.11l110.94 0c21.88,0 38.68,11.7 40.2,33.59 1.53,23.41 0,50.89 0,74.3 0,24.93 0,49.87 0,74.3z"/>
   <path class="fil1" d="M1129.18 1557.74c1.02,-1.02 18.83,-9.67 22.39,-11.71 8.14,-5.09 13.74,-9.16 20.86,-14.76 11.71,-9.16 24.43,-22.9 33.08,-36.64 21.88,-33.08 30.03,-61.07 30.03,-109.41 0,-93.64 0,-186.76 0,-280.4l-37.15 0c0,51.91 0,103.82 0,155.72 0,19.34 3.05,44.78 -23.41,53.94 -11.71,4.07 -59.54,2.04 -75.32,2.04 -15.77,0 -65.14,2.04 -76.33,-2.54 -26.46,-9.16 -23.41,-35.62 -23.41,-54.45 0,-51.4 0,-102.8 0,-154.71l-281.93 0c0,51.91 0,103.82 0,155.72 0,18.83 3.05,44.27 -23.41,53.94 -11.2,4.07 -60.05,2.04 -75.32,2.04 -15.78,0 -65.14,2.04 -76.34,-2.54 -9.16,-3.05 -16.79,-10.18 -20.35,-18.32 -4.58,-10.69 -3.05,-23.92 -3.05,-36.13 0,-51.4 0,-102.8 0,-154.2 -34.09,-4.07 -51.4,4.58 -98.73,-11.71 -14.25,-5.09 -25.44,-10.69 -37.66,-17.3 -15.78,-8.65 -23.41,-17.3 -31.55,-22.39 -0.51,12.21 0,27.48 0,40.2l0 279.89c0,61.07 -2.54,89.57 29.01,131.8 10.69,13.74 27.99,27.99 43.76,36.13 19.85,10.18 38.68,15.78 64.12,15.78 106.87,1.02 214.25,0 320.6,0 53.43,0 106.87,0 159.8,0 52.93,0 107.38,-1.02 160.3,0z"/>
   <polygon class="fil2" points="1116.97,282.45 1116.97,71.76 601.96,71.76 601.96,282.45 "/>
   <path class="fil3" d="M1432.48 1557.74c19.34,0.51 81.42,1.02 97.71,-1.53 28.5,-4.07 46.82,-14.25 67.68,-30.53 6.62,-4.58 18.83,-18.83 23.41,-25.44 28.5,-41.22 24.94,-73.28 24.94,-121.63 0,-130.79 0,-261.58 -0,-392.36l-106.87 0c0,112.98 0,225.95 0,338.93 0,58.02 5.09,102.79 -18.83,151.14 -16.8,32.57 -42.75,58.02 -73.79,74.3 -4.58,2.54 -10.68,4.07 -14.25,7.13zm-196.94 -452.92c0,93.64 0,186.76 0,280.4 0,48.35 -8.14,76.33 -30.02,109.41 -8.65,13.74 -21.37,27.48 -33.08,36.64 -7.12,5.6 -12.72,9.67 -20.86,14.76 -3.57,2.04 -21.38,10.69 -22.39,11.7 30.53,0.51 61.58,0 92.11,0 29.52,0 53.94,-4.58 75.83,-17.3 34.6,-20.36 67.68,-57.51 69.21,-115.52 1.02,-30.54 0,-62.09 0,-92.62l0 -277.85 -3.56 2.54c-39.69,30.53 -72.26,44.78 -127.22,47.84zm-37.15 -101.27l0 29.51c47.83,0 81.42,0.51 119.59,-32.06 2.04,-1.53 4.07,-3.05 5.6,-5.09 3.05,-2.55 2.55,-2.55 5.6,-5.09 12.21,-10.69 26.46,-38.17 31.55,-54.45 7.63,-24.94 5.59,-54.45 5.59,-81.42 0,-7.63 1.53,-335.87 0,-345.03 -5.09,-1.02 -111.45,0 -126.2,0l-885.48 -0.51c-3.56,0.51 -1.53,-0.51 -3.05,1.53l907.87 -0 0 346.56c0,42.74 -4.58,73.79 -28.5,109.92 -7.63,12.21 -22.39,30.54 -32.57,36.13z"/>
   <path class="fil1" d="M172.96 986.25l-101.27 -0c0,129.77 0,259.54 0,389.82 0,31.04 -2.04,61.58 7.63,90.08 16.29,45.8 55.47,80.91 104.83,89.57 29.01,5.09 65.14,1.02 95.16,2.54l50.89 -0.51 -16.28 -22.9c-36.13,-56.49 -33.59,-96.69 -33.59,-160.81l0 -387.78 -107.38 0z"/>
   <path class="fil1" d="M1432.48 1557.74c3.56,-3.05 9.67,-4.58 14.25,-7.13 31.04,-16.28 57,-41.73 73.79,-74.3 23.92,-48.35 18.83,-93.13 18.83,-151.14 0,-112.98 0,-225.95 0,-338.93 -11.71,-0.51 -96.18,-1.02 -101.27,0.51 0,103.31 0,206.61 0,309.92 0,34.09 1.53,126.2 -2.54,153.69 -4.07,31.55 -15.27,59.03 -31.55,84.48 -2.54,4.07 -5.09,7.63 -7.63,11.71 -3.05,4.07 -6.11,7.13 -8.65,11.2l44.78 0z"/>
   <path class="fil2" d="M1315.43 281.94c5.6,2.04 69.21,0.51 80.92,0.51 25.95,0 52.93,1.53 77.35,-3.56 27.48,-5.6 62.09,-22.9 80.41,-41.73 2.04,-2.04 3.05,-3.56 5.09,-5.09 6.62,-6.62 9.16,-9.16 14.76,-16.79 -0.51,-32.06 -6.11,-56.49 -20.36,-78.88 -13.23,-20.36 -30.02,-37.15 -52.42,-48.85 -27.99,-14.76 -49.36,-15.78 -84.48,-15.78 -33.08,0 -68.7,-1.53 -100.76,0l-0.51 210.18z"/>
   <path class="fil2" d="M144.46 216.29l9.67 10.69c12.72,12.72 16.29,17.3 32.57,27.99 46.31,30.02 81.42,27.48 133.84,27.48 26.97,0 53.43,0 80.4,0l0.51 -210.68c-14.76,-1.02 -79.9,0 -99.74,0 -37.66,0 -54.45,0.51 -84.98,15.78 -21.38,10.69 -39.69,29.52 -51.91,48.35 -14.25,23.41 -21.37,47.84 -20.35,80.4z"/>
   <path class="fil4" d="M144.46 216.29c-0.51,19.85 0,40.2 0,60.05 0,39.69 -0.51,63.1 20.86,98.22 23.92,39.18 67.18,63.1 117.05,63.61 14.76,0 114.5,1.02 120.1,-0.51l0 -354.7c0,-3.56 1.02,-8.65 -1.02,-11.2l-0.51 210.68c-26.97,0 -53.44,0 -80.4,0 -52.42,0 -87.53,2.54 -133.84,-27.48 -16.28,-10.69 -19.85,-15.27 -32.57,-27.99l-9.67 -10.69zm1170.97 65.65l0.51 155.72c18.83,1.02 40.2,0.51 59.54,0.51 58.52,0 104.83,6.11 149.11,-31.55 19.33,-16.29 37.66,-39.69 45.8,-74.3 5.6,-23.92 3.56,-88.55 3.56,-117.04 -5.6,7.63 -8.14,10.18 -14.75,16.79 -2.04,1.53 -3.06,3.05 -5.09,5.09 -18.32,18.83 -52.92,36.13 -80.4,41.73 -24.42,5.09 -51.4,3.56 -77.35,3.56 -11.71,-0 -75.32,1.52 -80.91,-0.51zm-198.47 0.51l-515 -0 0 -210.68c-2.03,1.53 -1.01,2.54 -1.01,10.18l0 355.72c5.6,1.53 245.29,0.51 258.01,0.51 86.01,0 172.01,0 258.01,0l0 -155.72z"/>
   <polygon class="fil5" points="1071.67,1244.77 1124.09,1244.77 1127.14,1244.77 1127.14,893.12 1071.67,893.12 1071.67,896.18 "/>
   <polygon class="fil5" points="591.27,1244.77 643.69,1244.77 646.74,1244.26 646.23,893.12 591.27,893.12 591.27,896.18 "/>
   <path class="fil6" d="M172.96 913.99l107.38 0.51c0,-21.37 0,-42.24 0,-63.61 0,-19.85 2.04,-42.24 -6.62,-57.51 -7.13,-12.21 -19.34,-23.92 -37.66,-26.46 -14.76,-2.54 -46.82,-1.02 -63.61,-1.02l0.51 148.09z"/>
   <path class="fil7" d="M1188.72 281.94c5.6,2.04 45.8,0.51 55.47,0.51l0 -210.68 -55.47 0 0 210.18z"/>
   <polygon class="fil7" points="528.68,71.76 475.25,71.76 475.25,282.45 528.17,282.45 "/>
   <path class="fil7" d="M172.96 913.99l-0.51 -148.09c-18.32,0 -33.08,-1.53 -47.33,7.13 -32.06,19.34 -25.95,51.4 -25.95,85.49 0,18.32 0,37.15 0,55.98l73.79 -0.51z"/>
   <path class="fil6" d="M528.68 71.76l-0.51 210.68 -52.93 0 0 -210.68c-2.54,1.53 -1.53,2.54 -1.53,10.18l0 355.72c4.07,1.02 51.4,1.02 55.98,0l0 -354.7c0,-3.56 1.02,-8.65 -1.02,-11.2z"/>
   <path class="fil6" d="M1244.19 282.45c-9.67,0 -49.87,1.53 -55.47,-0.51l0 156.23 55.47 0 0 -155.72z"/>
   <polygon class="fil7" points="1570.39,914.5 1613.65,914.5 1613.65,765.9 1570.39,765.9 "/>
   <polygon class="fil8" points="1498.13,834.09 1438.59,834.09 1438.08,913.48 1498.64,913.48 "/>
   <path class="fil9" d="M1498.13 834.09l0.51 79.39 -60.56 0 0.51 -79.39c-1.53,1.02 -0.51,-0.51 -1.02,1.53 0,0.51 0,2.04 0,2.54 0,1.53 0,3.56 0,5.09 0,12.72 -1.02,67.17 0.51,71.24l60.56 0c1.53,-4.07 0.51,-61.07 0.51,-75.32 0,-6.11 0,-4.07 -1.02,-5.09z"/>
  </g>
 </g>
</svg>
