<?xml version="1.0" encoding="UTF-8"?>
<!DOCTYPE svg PUBLIC "-//W3C//DTD SVG 1.1//EN" "http://www.w3.org/Graphics/SVG/1.1/DTD/svg11.dtd">
<!-- Creator: CorelDRAW 2019 (64 Bit) -->
<svg xmlns="http://www.w3.org/2000/svg" xml:space="preserve" width="103.747mm" height="118.462mm" version="1.1" style="shape-rendering:geometricPrecision; text-rendering:geometricPrecision; image-rendering:optimizeQuality; fill-rule:evenodd; clip-rule:evenodd"
viewBox="0 0 2676.66 3056.3"
 xmlns:xlink="http://www.w3.org/1999/xlink"
 xmlns:xodm="http://www.corel.com/coreldraw/odm/2003">
 <defs>
  <style type="text/css">
   <![CDATA[
    .fil4 {fill:#4F87CC}
    .fil3 {fill:#54A0FF}
    .fil0 {fill:#BACBD3}
    .fil2 {fill:#D98D41}
    .fil1 {fill:#E8EDF0}
   ]]>
  </style>
 </defs>
 <g id="Camada_x0020_1">
  <metadata id="CorelCorpID_0Corel-Layer"/>
  <g id="_2603756067936">
   <path class="fil0" d="M2569.92 721.23l-279.2 -209.96 -49.38 -37.13 -49.38 -37.13 -279.2 -209.96 -42.19 -31.73c-27.16,-20.42 -65.98,-14.78 -86.29,12.54l0 0c-20.3,27.32 -14.69,66.38 12.47,86.8 22.14,16.65 28.44,50.25 13,71.02l-573.43 771.74 328.58 247.09 328.58 247.09 573.43 -771.75c15.43,-20.77 49.24,-24.21 71.39,-7.56 27.16,20.42 65.98,14.78 86.28,-12.54l0 0c20.3,-27.32 14.69,-66.38 -12.47,-86.8l-42.19 -31.73z"/>
   <circle class="fil0" transform="matrix(-0.334774 -0.251753 -0.250246 0.33679 1253.18 1795.58)" r="2998.08"/>
   <circle class="fil1" transform="matrix(-0.301984 -0.227095 -0.225736 0.303803 1253.18 1795.58)" r="2998.08"/>
   <path class="fil2" d="M2644.56 362.79l-459.75 -345.74c-29.44,-22.14 -71.12,-23.86 -84.64,1.61l-313.14 589.89c-13.52,25.47 -7.02,59.98 22.42,82.12l307.03 230.89c29.44,22.14 64.5,18.93 84.64,-1.61l465.86 -475.04c20.14,-20.54 7.02,-59.98 -22.43,-82.12z"/>
   <path class="fil3" d="M194.97 1395.15c-46.59,124.56 -72.15,259.49 -72.15,400.43 0,628.04 506.08,1137.17 1130.37,1137.17 624.28,0 1130.37,-509.13 1130.37,-1137.17 0,-131.41 -22.23,-257.58 -62.99,-375 -99.52,14.08 -203.6,20.27 -314.22,-1.11 -377.3,-72.9 -573.34,-64.93 -742.93,-52.75 -229.6,16.49 -463.2,197.67 -692.65,179.04 -144.39,-11.72 -263.58,-81.59 -375.79,-150.62z"/>
   <path class="fil4" d="M157.16 1516.54c-22.41,89.28 -34.34,182.75 -34.34,279.03 0,628.04 506.08,1137.17 1130.37,1137.17 624.28,0 1130.37,-509.13 1130.37,-1137.17 0,-78.22 -7.88,-154.59 -22.85,-228.36 -73.65,18.36 -150.42,39.28 -229.3,24.04 -377.3,-72.9 -691.19,-154.45 -860.77,-142.27 -229.6,16.49 -506.5,282.34 -735.94,263.72 -130.18,-10.56 -269.19,-123.46 -377.52,-196.17z"/>
  </g>
 </g>
</svg>
