<?xml version="1.0" encoding="UTF-8"?>
<!DOCTYPE svg PUBLIC "-//W3C//DTD SVG 1.1//EN" "http://www.w3.org/Graphics/SVG/1.1/DTD/svg11.dtd">
<!-- Creator: CorelDRAW 2019 (64 Bit) -->
<svg xmlns="http://www.w3.org/2000/svg" xml:space="preserve" width="105.615mm" height="118.181mm" version="1.1" style="shape-rendering:geometricPrecision; text-rendering:geometricPrecision; image-rendering:optimizeQuality; fill-rule:evenodd; clip-rule:evenodd"
viewBox="0 0 10958.78 12262.69"
 xmlns:xlink="http://www.w3.org/1999/xlink"
 xmlns:xodm="http://www.corel.com/coreldraw/odm/2003">
 <defs>
  <style type="text/css">
   <![CDATA[
    .fil0 {fill:#BACBD3}
    .fil2 {fill:#D98D41}
    .fil4 {fill:#E8391C}
    .fil1 {fill:#E8EDF0}
    .fil3 {fill:#F94826}
   ]]>
  </style>
 </defs>
 <g id="Camada_x0020_1">
  <metadata id="CorelCorpID_0Corel-Layer"/>
  <path class="fil0" d="M623.15 2871.57l1122.88 -844.41 198.58 -149.33 198.58 -149.33 1122.88 -844.42 169.7 -127.61c109.22,-82.14 265.37,-59.43 347.01,50.44l0 0c81.65,109.87 59.08,266.97 -50.14,349.11 -89.06,66.98 -114.37,202.08 -52.3,285.62l2306.22 3103.78 -1321.46 993.75 -1321.46 993.76 -2306.22 -3103.79c-62.08,-83.54 -198.04,-97.36 -287.1,-30.39 -109.22,82.14 -265.38,59.43 -347.02,-50.44l0 0c-81.64,-109.87 -59.08,-266.97 50.14,-349.11l169.7 -127.62z"/>
  <circle class="fil0" transform="matrix(0.334774 -0.251753 0.250246 0.33679 5918.78 7192.34)" r="12057.62"/>
  <circle class="fil1" transform="matrix(0.301984 -0.227095 0.225736 0.303803 5918.78 7192.34)" r="12057.62"/>
  <path class="fil2" d="M129.13 1459.04l1849.02 -1390.47c118.41,-89.05 286.02,-95.97 340.41,6.47l1259.38 2372.4c54.38,102.44 28.21,241.25 -90.19,330.28l-1234.78 928.57c-118.4,89.05 -259.39,76.14 -340.41,-6.47l-1873.6 -1910.49c-81.02,-82.61 -28.23,-241.24 90.18,-330.29z"/>
  <path class="fil3" d="M10174.67 5581.89c187.39,500.95 290.19,1043.59 290.19,1610.45 0,2525.85 -2035.35,4573.46 -4546.08,4573.46 -2510.73,0 -4546.08,-2047.61 -4546.08,-4573.46 0,-528.49 89.4,-1035.91 253.33,-1508.16 400.23,56.64 818.81,81.52 1263.72,-4.45 1517.41,-293.2 2305.86,-261.14 2987.9,-212.14 923.41,66.33 1862.9,794.97 2785.68,720.07 580.72,-47.14 1060.07,-328.15 1511.33,-605.77z"/>
  <path class="fil4" d="M10326.74 6070.13c90.14,359.06 138.12,734.97 138.12,1122.21 0,2525.85 -2035.35,4573.46 -4546.08,4573.46 -2510.73,0 -4546.08,-2047.61 -4546.08,-4573.46 0,-314.58 31.68,-621.71 91.9,-918.39 296.19,73.85 604.96,157.96 922.19,96.66 1517.4,-293.19 2779.83,-621.17 3461.84,-572.18 923.4,66.31 2037.03,1135.53 2959.78,1060.64 523.56,-42.48 1082.64,-496.52 1518.32,-788.94z"/>
 </g>
</svg>
