<?xml version="1.0" encoding="UTF-8"?>
<!DOCTYPE svg PUBLIC "-//W3C//DTD SVG 1.1//EN" "http://www.w3.org/Graphics/SVG/1.1/DTD/svg11.dtd">
<!-- Creator: CorelDRAW 2019 (64 Bit) -->
<svg xmlns="http://www.w3.org/2000/svg" xml:space="preserve" width="44.362mm" height="44.3619mm" version="1.1" style="shape-rendering:geometricPrecision; text-rendering:geometricPrecision; image-rendering:optimizeQuality; fill-rule:evenodd; clip-rule:evenodd"
viewBox="0 0 515.12 515.12"
 xmlns:xlink="http://www.w3.org/1999/xlink"
 xmlns:xodm="http://www.corel.com/coreldraw/odm/2003">
 <defs>
  <style type="text/css">
   <![CDATA[
    .fil0 {fill:#FA3E19}
   ]]>
  </style>
 </defs>
 <g id="Camada_x0020_1">
  <metadata id="CorelCorpID_0Corel-Layer"/>
  <path class="fil0" d="M356.86 257.56l137.76 137.76c13.67,13.67 20.51,31.67 20.51,49.65 0,17.98 -6.84,35.98 -20.51,49.65 -13.67,13.67 -31.67,20.51 -49.65,20.51 -17.98,0 -35.98,-6.84 -49.65,-20.51l-137.76 -137.76 -137.76 137.76c-13.67,13.67 -31.67,20.51 -49.65,20.51 -17.98,0 -35.98,-6.84 -49.65,-20.51 -13.67,-13.67 -20.51,-31.67 -20.51,-49.65 0,-17.98 6.84,-35.97 20.51,-49.65l137.76 -137.76 -137.76 -137.76c-13.67,-13.67 -20.51,-31.67 -20.51,-49.65 0,-17.98 6.84,-35.98 20.51,-49.65 13.67,-13.67 31.67,-20.51 49.65,-20.51 17.98,0 35.98,6.84 49.65,20.51l137.76 137.76 137.76 -137.76c13.67,-13.67 31.67,-20.51 49.65,-20.51 17.98,0 35.98,6.84 49.65,20.51 13.67,13.67 20.51,31.67 20.51,49.65 0,17.98 -6.84,35.98 -20.51,49.65l-137.76 137.76z"/>
 </g>
</svg>
